<svg xmlns="http://www.w3.org/2000/svg" viewBox="0 0 211.73 192.84" width="211.73" height="192.84"><path d="M201.92 84.76a9.82 9.82 0 0 0-9.8 9.81h-7.44a9.79 9.79 0 0 0-19.57 0h-9.9a5.38 5.38 0 0 0-10.65 0h-16.78a21.49 21.49 0 0 0-1-6l19.46-7.16a5.39 5.39 0 0 0 10.11-2.62 5.19 5.19 0 0 0-.11-1l9.6-3.53a5.37 5.37 0 1 0-.67-2.56 5.43 5.43 0 0 0 .15 1.22l-9.56 3.52a5.39 5.39 0 0 0-10.22 2.4 5.58 5.58 0 0 0 .17 1.3l-19.42 7.14a21.27 21.27 0 0 0-4.19-6.54l11.52-11.59a9.79 9.79 0 0 0 13.8-13.8l17-17a13.94 13.94 0 0 0 23.66-8.54c0-.45.06-.93.06-1.41a14 14 0 1 0-24.69 8.9l-17.07 17.07a9.79 9.79 0 0 0-13.76 13.78l-11.58 11.57a21.37 21.37 0 0 0-5-3.47l16.68-36.09a13.94 13.94 0 0 0 18.74-11.66q.06-.69.06-1.41a14 14 0 1 0-20.11 12.5l-16.66 36a21.13 21.13 0 0 0-7.6-1.63V49.24a9.8 9.8 0 0 0 0-19.5v-19a5.36 5.36 0 1 0-1.43 0v19a9.79 9.79 0 0 0 0 19.57V74a21.09 21.09 0 0 0-6 1.09l-3.1-8.67a5.39 5.39 0 0 0-2.7-10.07 5.23 5.23 0 0 0-1 .1l-3.23-8.79a9.8 9.8 0 1 0-4 .87 10 10 0 0 0 2.69-.38l3.21 8.74a5.4 5.4 0 0 0 2.33 10.28 5.75 5.75 0 0 0 1.38-.2l3.17 8.62a21.26 21.26 0 0 0-6.48 4.22l-6.72-6.72a5.29 5.29 0 0 0 1-3.17 5.39 5.39 0 0 0-8.58-4.36l-5.3-5.3a5.4 5.4 0 0 0-7.47-7.47L53.75 41.62a9.79 9.79 0 0 0-13.84-13.84l-1 1 .07.07a9.79 9.79 0 0 0 13.76 13.76l11.14 11.15a5.35 5.35 0 0 0-1.38 3.58 5.38 5.38 0 0 0 9 4l5.21 5.22a5.34 5.34 0 0 0-1.2 3.36 5.38 5.38 0 0 0 8.77 4.2l6.71 6.71a21.25 21.25 0 0 0-3.43 4.95L59.74 72.92a14.44 14.44 0 0 0 .69-3.12c0-.45.06-.93.06-1.41a13.93 13.93 0 1 0-1.28 5.86l27.74 12.83a21.21 21.21 0 0 0-1.6 7.53H54.52a5.37 5.37 0 0 0-10.7 0h-24.5a9.69 9.69 0 1 0 0 1.43h24.53a5.39 5.39 0 0 0 10.64 0h30.84a21.37 21.37 0 0 0 1.06 5.9l-30.84 11.34a13.94 13.94 0 1 0 .51 5.38 13.05 13.05 0 0 0 .07-1.41 13.47 13.47 0 0 0-.25-2.56l31-11.41a21.26 21.26 0 0 0 4.16 6.45l-13.79 13.79a9.79 9.79 0 0 0-13.83 13.83l-14.11 14.11a13.93 13.93 0 1 0 4.46 11.66c0-.46.07-.94.07-1.41a13.84 13.84 0 0 0-3.53-9.23l14.14-14.14a9.72 9.72 0 0 0 6.22 2.24 9.82 9.82 0 0 0 9.81-9.81 9.72 9.72 0 0 0-2.24-6.22l13.81-13.81a21.67 21.67 0 0 0 4.91 3.44l-1.55 3.33a5.4 5.4 0 0 0-4.47 9.68L85.04 140a13.94 13.94 0 1 0 9.11 14.5 13.18 13.18 0 0 0 .07-1.41 14 14 0 0 0-7.86-12.53l5.88-12.71a5.38 5.38 0 0 0 4.49-9.72l1.51-3.28a21.08 21.08 0 0 0 7.5 1.65v32.73a5.39 5.39 0 0 0 0 10.76v13.34a9.78 9.78 0 1 0 1.43 0v-13.48a5.41 5.41 0 0 0 0-10.57v-32.82a21.18 21.18 0 0 0 5.93-1l12.94 35.19a14 14 0 1 0 19.32 14.27c0-.46.07-.93.07-1.41a14 14 0 0 0-14-14 13.76 13.76 0 0 0-4.08.62L114.44 115a21.08 21.08 0 0 0 6.51-4.13l7.56 7.56a5.33 5.33 0 0 0-.71 2.63 5.42 5.42 0 0 0 5.41 5.41 5.29 5.29 0 0 0 2.62-.71l17.46 17.45a14 14 0 0 0 19.64 19.64l.09.09 1-1a13.84 13.84 0 0 0 4-8.4c0-.45.07-.93.07-1.41a14 14 0 0 0-23.76-9.92l-17.25-17.25a5.36 5.36 0 0 0 1.54-3.96 5.41 5.41 0 0 0-9.26-3.8l-7.39-7.39a21.16 21.16 0 0 0 3.49-4.93l24.69 11.41a9.94 9.94 0 0 0-.71 3.66 9.8 9.8 0 0 0 18.48 4.56l5.93 2.74a5.36 5.36 0 0 0-.1 1 5.46 5.46 0 1 0 .56-2.36l-5.82-2.69a9.63 9.63 0 0 0 .56-3.24 9.8 9.8 0 0 0-18.26-4.96l-24.71-11.4a21 21 0 0 0 1.69-7.56h16.77a5.38 5.38 0 0 0 10.69 0h9.92a9.8 9.8 0 0 0 19.5 0h7.59a9.8 9.8 0 1 0 9.68-11.28z"/></svg>